<svg xmlns="http://www.w3.org/2000/svg" version="1.1" xmlns:xlink="http://www.w3.org/1999/xlink" xmlns:svgjs="http://svgjs.dev/svgjs" width="2000" height="1252" viewBox="0 0 2000 1252"><g transform="matrix(1,0,0,1,-1.2121212121212466,-2.01935483870966)"><svg viewBox="0 0 396 248" data-background-color="#ffffff" preserveAspectRatio="xMidYMid meet" height="1252" width="2000" xmlns="http://www.w3.org/2000/svg" xmlns:xlink="http://www.w3.org/1999/xlink"><g id="tight-bounds" transform="matrix(1,0,0,1,0.2400000000000091,0.4000000000000057)"><svg viewBox="0 0 395.52 247.2" height="247.2" width="395.52"><g><svg></svg></g><g><svg viewBox="0 0 395.52 247.2" height="247.2" width="395.52"><g transform="matrix(1,0,0,1,75.54432,92.4704835716129)"><svg viewBox="0 0 244.43135999999998 62.25903285677418" height="62.25903285677418" width="244.43135999999998"><g><svg viewBox="0 0 244.43135999999998 62.25903285677418" height="62.25903285677418" width="244.43135999999998"><g><svg viewBox="0 0 244.43135999999998 62.25903285677418" height="62.25903285677418" width="244.43135999999998"><g><svg viewBox="0 0 244.43135999999998 62.25903285677418" height="62.25903285677418" width="244.43135999999998"><g id="textblocktransform"><svg viewBox="0 0 244.43135999999998 62.25903285677418" height="62.25903285677418" width="244.43135999999998" id="textblock"><g><svg viewBox="0 0 244.43135999999998 62.25903285677418" height="62.25903285677418" width="244.43135999999998"><g transform="matrix(1,0,0,1,0,0)"><svg width="244.43135999999998" viewBox="2.8 -36.75 193.73 49.35" height="62.25903285677418" data-palette-color="#b8acac"><path d="M11.45 0.5Q9.05 0.5 6.48-0.13 3.9-0.75 2.8-1.6L2.8-1.6 4.6-5.85Q7.6-3.75 11.45-3.75L11.45-3.75Q15.3-3.75 15.3-6L15.3-6Q15.3-7 14.5-7.55 13.7-8.1 11.65-8.85L11.65-8.85 9.75-9.55Q6.75-10.75 5-12.43 3.25-14.1 3.25-16.85L3.25-16.85Q3.25-20 5.73-21.78 8.2-23.55 12.35-23.55L12.35-23.55Q14.4-23.55 16.38-23.1 18.35-22.65 19.4-21.95L19.4-21.95 17.45-17.65Q16.8-18.3 15.38-18.78 13.95-19.25 12.2-19.25L12.2-19.25Q8.65-19.25 8.65-17.1L8.65-17.1Q8.65-15.9 9.6-15.28 10.55-14.65 12.7-13.9L12.7-13.9Q12.9-13.85 14.25-13.35L14.25-13.35Q17.45-12.1 19-10.5 20.55-8.9 20.55-6.4L20.55-6.4Q20.55-3 17.98-1.25 15.4 0.5 11.45 0.5L11.45 0.5ZM28.15 0L28.15-18.55 24.1-18.55 24.1-22.95 28.15-22.95 28.15-32.3 33.6-33.5 33.6-22.95 38.9-22.95 38.9-18.55 33.6-18.55 33.6 0 28.15 0ZM53.45 0.5Q50.35 0.5 47.72-0.98 45.1-2.45 43.52-5.18 41.95-7.9 41.95-11.55L41.95-11.55Q41.95-15.15 43.32-17.85 44.7-20.55 47.25-22.05 49.8-23.55 53.25-23.55L53.25-23.55Q55.25-23.55 57-22.85 58.75-22.15 59.95-21.13 61.15-20.1 61.55-19.1L61.55-19.1 61.65-22.95 66.8-22.95 66.8 0 61.7 0 61.6-4.05Q60.75-2.25 58.5-0.88 56.25 0.5 53.45 0.5L53.45 0.5ZM54.35-4Q57.2-4 59.15-5.98 61.1-7.95 61.1-11.15L61.1-11.15 61.1-11.5Q61.1-13.65 60.2-15.35 59.3-17.05 57.75-18 56.2-18.95 54.35-18.95L54.35-18.95Q51.15-18.95 49.4-16.88 47.65-14.8 47.65-11.5L47.65-11.5Q47.65-8.15 49.37-6.08 51.1-4 54.35-4L54.35-4ZM75.69 12.6L80.64 0.7 71.14-22.95 77.24-22.95 82.14-8.35 83.24-4.8 84.34-8.35 89.49-22.95 95.39-22.95 81.29 12.6 75.69 12.6ZM99.19 0L99.19-36.75 115.29-36.75 115.29-31.85 104.74-31.85 104.74-21.7 113.24-21.7 113.24-16.7 104.74-16.7 104.74-4.95 116.94-4.95 116.94 0 99.19 0ZM132.39 0.5Q129.29 0.5 126.66-0.98 124.04-2.45 122.46-5.18 120.89-7.9 120.89-11.55L120.89-11.55Q120.89-15.15 122.26-17.85 123.64-20.55 126.19-22.05 128.74-23.55 132.19-23.55L132.19-23.55Q134.19-23.55 135.94-22.85 137.69-22.15 138.89-21.13 140.09-20.1 140.49-19.1L140.49-19.1 140.59-22.95 145.74-22.95 145.74 0 140.64 0 140.54-4.05Q139.69-2.25 137.44-0.88 135.19 0.5 132.39 0.5L132.39 0.5ZM133.29-4Q136.14-4 138.09-5.98 140.04-7.95 140.04-11.15L140.04-11.15 140.04-11.5Q140.04-13.65 139.14-15.35 138.24-17.05 136.69-18 135.14-18.95 133.29-18.95L133.29-18.95Q130.09-18.95 128.34-16.88 126.59-14.8 126.59-11.5L126.59-11.5Q126.59-8.15 128.31-6.08 130.04-4 133.29-4L133.29-4ZM160.88 0.5Q158.49 0.5 155.91-0.13 153.34-0.75 152.24-1.6L152.24-1.6 154.03-5.85Q157.03-3.75 160.88-3.75L160.88-3.75Q164.74-3.75 164.74-6L164.74-6Q164.74-7 163.94-7.55 163.13-8.1 161.09-8.85L161.09-8.85 159.19-9.55Q156.19-10.75 154.44-12.43 152.69-14.1 152.69-16.85L152.69-16.85Q152.69-20 155.16-21.78 157.63-23.55 161.78-23.55L161.78-23.55Q163.84-23.55 165.81-23.1 167.78-22.65 168.84-21.95L168.84-21.95 166.88-17.65Q166.24-18.3 164.81-18.78 163.38-19.25 161.63-19.25L161.63-19.25Q158.09-19.25 158.09-17.1L158.09-17.1Q158.09-15.9 159.03-15.28 159.99-14.65 162.13-13.9L162.13-13.9Q162.34-13.85 163.69-13.35L163.69-13.35Q166.88-12.1 168.44-10.5 169.99-8.9 169.99-6.4L169.99-6.4Q169.99-3 167.41-1.25 164.84 0.5 160.88 0.5L160.88 0.5ZM186.43 0.5Q182.33 0.5 179.58-1.13 176.83-2.75 175.53-5.48 174.23-8.2 174.23-11.45L174.23-11.45Q174.23-15.1 175.76-17.85 177.28-20.6 179.98-22.08 182.68-23.55 186.08-23.55L186.08-23.55Q191.38-23.55 193.96-20.63 196.53-17.7 196.53-12.4L196.53-12.4Q196.53-11.05 196.38-9.6L196.38-9.6 179.88-9.6Q180.43-6.55 182.06-5.2 183.68-3.85 186.58-3.85L186.58-3.85Q188.98-3.85 190.53-4.25 192.08-4.65 193.38-5.35L193.38-5.35 195.03-1.5Q193.78-0.7 191.63-0.1 189.48 0.5 186.43 0.5L186.43 0.5ZM179.88-13.35L191.28-13.35Q191.33-16.45 189.93-17.73 188.53-19 185.93-19L185.93-19Q180.68-19 179.88-13.35L179.88-13.35Z" opacity="1" transform="matrix(1,0,0,1,0,0)" fill="#b8acac" class="wordmark-text-0" data-fill-palette-color="primary" id="text-0"></path></svg></g></svg></g></svg></g></svg></g></svg></g></svg></g></svg></g><path d="M195.305 86.47L195.305 28.155 386.194 28.155 386.194 219.045 195.305 219.045 195.305 160.73 200.92 160.73 200.92 213.43 380.58 213.43 380.58 33.77 200.92 33.77 200.92 86.47Z" fill="#000000" stroke="transparent" data-fill-palette-color="tertiary"></path></svg></g><defs></defs></svg><rect width="395.52" height="247.2" fill="none" stroke="none" visibility="hidden"></rect></g></svg></g></svg>